<svg width="24" height="27" viewBox="0 0 24 27" fill="none" xmlns="http://www.w3.org/2000/svg">
<path d="M12.0003 25.3082C5.96494 25.3082 1.07228 19.9132 1.07228 13.2584C1.07228 6.60358 5.96494 1.20874 12.0003 1.20874C18.0357 1.20874 22.9284 6.60358 22.9284 13.2584C22.9284 19.9132 18.0357 25.3082 12.0003 25.3082Z" fill="#FF7972"/>
<path fill-rule="evenodd" clip-rule="evenodd" d="M12.0003 0.0273438C5.37321 0.0273438 0.000854492 5.95111 0.000854492 13.2584C0.000854492 20.5658 5.37321 26.4896 12.0003 26.4896C18.6274 26.4896 23.9998 20.5658 23.9998 13.2584C23.9998 5.95111 18.6274 0.0273438 12.0003 0.0273438ZM2.14371 13.2584C2.14371 7.25604 6.55666 2.39015 12.0003 2.39015C17.4439 2.39015 21.857 7.25604 21.857 13.2584C21.857 19.2609 17.4439 24.1268 12.0003 24.1268C6.55666 24.1268 2.14371 19.2609 2.14371 13.2584ZM12.0013 13.2231C12.0013 10.6558 13.8887 8.57468 16.217 8.57468C16.6461 8.57468 16.9738 8.00591 16.6592 7.68416C15.4369 6.43386 13.8001 5.66944 12.0013 5.66944C8.21789 5.66944 5.15083 9.05133 5.15083 13.2231C5.15083 17.3948 8.21789 20.7767 12.0013 20.7767C13.8001 20.7767 15.4369 20.0123 16.6592 18.762C16.9738 18.4402 16.6461 17.8715 16.217 17.8715C13.8887 17.8715 12.0013 15.7903 12.0013 13.2231Z" fill="#0C098C"/>
</svg>
