<svg width="24" height="27" viewBox="0 0 24 27" fill="none" xmlns="http://www.w3.org/2000/svg">
<path d="M13.4607 8.24295C13.1277 7.80235 12.5006 7.71511 12.06 8.0481C11.6194 8.3811 11.5322 9.00822 11.8652 9.44883L13.4607 8.24295ZM15.9775 13.2316L16.7753 13.8346C17.0449 13.4778 17.0449 12.9855 16.7753 12.6287L15.9775 13.2316ZM11.8652 17.0145C11.5322 17.4551 11.6194 18.0822 12.06 18.4152C12.5006 18.7482 13.1277 18.6609 13.4607 18.2203L11.8652 17.0145ZM8.02253 12.2316C7.47024 12.2316 7.02253 12.6794 7.02253 13.2316C7.02253 13.7839 7.47024 14.2316 8.02253 14.2316L8.02253 12.2316ZM11.8652 9.44883L15.1797 13.8346L16.7753 12.6287L13.4607 8.24295L11.8652 9.44883ZM15.1797 12.6287L11.8652 17.0145L13.4607 18.2203L16.7753 13.8346L15.1797 12.6287ZM15.9775 12.2316L8.02253 12.2316L8.02253 14.2316L15.9775 14.2316V12.2316ZM17.6232 6.88625C20.7923 10.3806 20.7923 16.0827 17.6232 19.577L19.1047 20.9206C22.9651 16.6639 22.9651 9.7993 19.1047 5.54267L17.6232 6.88625ZM17.6232 19.577C14.5054 23.0148 9.49462 23.0148 6.37678 19.577L4.8953 20.9206C8.80689 25.2336 15.1931 25.2336 19.1047 20.9206L17.6232 19.577ZM6.37678 19.577C3.20774 16.0827 3.20774 10.3806 6.37678 6.88625L4.8953 5.54267C1.0349 9.7993 1.0349 16.6639 4.8953 20.9206L6.37678 19.577ZM6.37678 6.88625C9.49462 3.4484 14.5054 3.4484 17.6232 6.88625L19.1047 5.54267C15.1931 1.22959 8.80689 1.22959 4.8953 5.54267L6.37678 6.88625Z" fill="black"/>
</svg>
